<svg width="36" height="47" viewBox="0 0 36 47" fill="none" xmlns="http://www.w3.org/2000/svg">
<rect x="0.717773" y="0.370789" width="34.9091" height="46.1124" rx="15" fill="#FBA556"/>
<g clip-path="url(#clip0_119_686)">
<path d="M21.806 15.3284H11.4118C11.0345 15.3284 10.7275 15.7338 10.7275 16.2323V34.4782C10.7275 34.9766 11.0345 35.382 11.4118 35.382H21.806C22.183 35.382 22.4899 34.9766 22.4899 34.4782V16.2323C22.4899 15.7338 22.183 15.3284 21.806 15.3284ZM19.4861 28.0547H13.939C13.6164 28.0547 13.3551 27.7096 13.3551 27.2835C13.3551 26.8573 13.6164 26.5122 13.939 26.5122H19.4861C19.8087 26.5122 20.07 26.8573 20.07 27.2835C20.07 27.7096 19.8087 28.0547 19.4861 28.0547ZM19.4861 24.9696H13.939C13.6164 24.9696 13.3551 24.6244 13.3551 24.1983C13.3551 23.7721 13.6164 23.427 13.939 23.427H19.4861C19.8087 23.427 20.07 23.7721 20.07 24.1983C20.07 24.6244 19.8087 24.9696 19.4861 24.9696ZM19.4861 21.8844H13.939C13.6164 21.8844 13.3551 21.5392 13.3551 21.1131C13.3551 20.687 13.6164 20.3418 13.939 20.3418H19.4861C19.8087 20.3418 20.07 20.687 20.07 21.1131C20.07 21.5392 19.8087 21.8844 19.4861 21.8844Z" fill="white"/>
<path d="M25.6167 13.7858V30.7543C25.6167 31.9189 24.9072 33.0681 23.6573 33.0681V16.2322C23.6573 14.883 22.8267 13.7858 21.8056 13.7858H12.6865C12.6865 12.5098 13.519 11.4719 14.5419 11.4719H23.7613C24.7843 11.4719 25.6167 12.5098 25.6167 13.7858Z" fill="white"/>
</g>
<defs>
<clipPath id="clip0_119_686">
<rect width="18.101" height="23.9101" fill="white" transform="translate(9.12158 11.4719)"/>
</clipPath>
</defs>
</svg>
