<svg width="29" height="26" viewBox="0 0 29 26" fill="none" xmlns="http://www.w3.org/2000/svg">
<path fill-rule="evenodd" clip-rule="evenodd" d="M4.2155 0.403381C2.30156 0.403381 0.75 1.95494 0.75 3.86888V22.1311C0.75 24.0451 2.30156 25.5966 4.2155 25.5966H24.7845C26.6984 25.5966 28.25 24.0451 28.25 22.1311V3.86888C28.25 1.95494 26.6984 0.403381 24.7845 0.403381H4.2155ZM4.81177 7.80955C5.08171 7.10123 5.79948 6.77887 6.41495 7.08954L14.0537 10.9453C14.3343 11.087 14.6654 11.087 14.946 10.9453L22.5848 7.08954C23.2002 6.77887 23.918 7.10123 24.1879 7.80955C24.4579 8.51787 24.1778 9.34392 23.5623 9.65459L14.9923 13.9804L14.9734 13.9898C14.8188 14.0651 14.6581 14.1007 14.4999 14.1006C14.3416 14.1007 14.1809 14.0651 14.0263 13.9898L14.0074 13.9804L5.4374 9.65459C4.82193 9.34392 4.54183 8.51787 4.81177 7.80955Z" fill="#007FFF"/>
</svg>
