<svg width="25" height="25" viewBox="0 0 25 25" fill="none" xmlns="http://www.w3.org/2000/svg">
<path d="M6.20007 0C6.72197 0 7.14506 0.387446 7.14506 0.865385V2.61104C7.98327 2.59615 8.92282 2.59615 9.97998 2.59615H9.98003H15.02H15.02C16.0772 2.59615 17.0167 2.59615 17.8549 2.61104V0.865385C17.8549 0.387446 18.278 0 18.7999 0C19.3218 0 19.7449 0.387446 19.7449 0.865385V2.6876C21.5585 2.82059 22.749 3.14697 23.6237 3.94797C24.4984 4.74897 24.8548 5.83923 25 7.5V8.75H0V7.5C0.145221 5.83923 0.501622 4.74897 1.3763 3.94797C2.25098 3.14697 3.44154 2.82059 5.25508 2.6876V0.865385C5.25508 0.387446 5.67817 0 6.20007 0Z" fill="url(#paint0_linear_65_603)"/>
<path d="M25 15V12.5C25 11.4512 24.9841 9.58158 24.968 8.75H0.00732215C-0.00880083 9.58158 0.00705015 11.4512 0.00705015 12.5V15C0.00705015 19.714 0.00705013 22.0711 1.4711 23.5355C2.93516 25 5.29151 25 10.0042 25H15.0028C19.7155 25 22.0719 25 23.5359 23.5355C25 22.0711 25 19.714 25 15Z" fill="url(#paint1_linear_65_603)"/>
<path fill-rule="evenodd" clip-rule="evenodd" d="M15 12.8125C13.7919 12.8125 12.8125 13.7919 12.8125 15V17.5C12.8125 18.7081 13.7919 19.6875 15 19.6875C16.2081 19.6875 17.1875 18.7081 17.1875 17.5V15C17.1875 13.7919 16.2081 12.8125 15 12.8125ZM15 14.6875C14.8274 14.6875 14.6875 14.8274 14.6875 15V17.5C14.6875 17.6726 14.8274 17.8125 15 17.8125C15.1726 17.8125 15.3125 17.6726 15.3125 17.5V15C15.3125 14.8274 15.1726 14.6875 15 14.6875Z" fill="white"/>
<path d="M11.5625 13.75C11.5625 13.3708 11.3341 13.029 10.9838 12.8839C10.6334 12.7388 10.2302 12.819 9.96209 13.0871L8.08709 14.9621C7.72097 15.3282 7.72097 15.9218 8.08709 16.2879C8.4532 16.6541 9.0468 16.6541 9.41291 16.2879L9.6875 16.0134V18.75C9.6875 19.2678 10.1072 19.6875 10.625 19.6875C11.1428 19.6875 11.5625 19.2678 11.5625 18.75V13.75Z" fill="white"/>
<defs>
<linearGradient id="paint0_linear_65_603" x1="12.5" y1="0" x2="12.5" y2="8.75" gradientUnits="userSpaceOnUse">
<stop offset="0.0729167" stop-color="#26CBFF"/>
<stop offset="1" stop-color="#0556FE"/>
</linearGradient>
<linearGradient id="paint1_linear_65_603" x1="0" y1="8.75" x2="22.1875" y2="25" gradientUnits="userSpaceOnUse">
<stop stop-color="#024FFD"/>
<stop offset="0.713542" stop-color="#27CBFF"/>
<stop offset="0.957312" stop-color="white"/>
</linearGradient>
</defs>
</svg>
