<svg width="12" height="12" viewBox="0 0 12 12" fill="none" xmlns="http://www.w3.org/2000/svg">
<path d="M4.7423 3.51176C5.02081 2.87239 4.87997 2.12769 4.38724 1.63422L3.24957 0.496886C2.87162 0.114365 2.33281 -0.0630264 1.80158 0.0201407C1.26435 0.0990549 0.797699 0.431251 0.547178 0.9131C-0.00290433 1.94851 -0.144405 3.1527 0.150692 4.28744C0.877686 7.16757 4.83556 11.1288 7.71465 11.8505C8.10329 11.9491 8.50263 11.9993 8.90359 12C9.66549 11.9995 10.4157 11.8122 11.0884 11.4545C11.9185 11.0216 12.2404 9.99756 11.8075 9.16736C11.7281 9.01494 11.6259 8.87552 11.5045 8.75384L10.3674 7.61596C9.8738 7.12306 9.12904 6.98222 8.48962 7.26085C8.19124 7.38947 7.91908 7.57199 7.68682 7.79924C7.40868 8.07908 6.38281 7.67378 5.35583 6.64718C4.32885 5.62059 3.92473 4.59454 4.20124 4.31525C4.42939 4.0829 4.61279 3.81055 4.7423 3.51176V3.51176ZM4.58305 7.4196C5.83363 8.6693 7.5156 9.51205 8.45529 8.57165C8.5937 8.43913 8.75502 8.33283 8.93141 8.258C9.15796 8.16144 9.42048 8.21311 9.59351 8.38838L10.7306 9.52571C10.8662 9.65972 10.929 9.85068 10.8997 10.039C10.8712 10.2325 10.7512 10.4005 10.5774 10.4901C9.78103 10.9181 8.85154 11.0266 7.97809 10.7934C5.5042 10.1694 1.83429 6.49883 1.21039 4.02126C0.977516 3.14684 1.08613 2.21655 1.51418 1.41931C1.60449 1.24641 1.77224 1.12733 1.96521 1.09912C1.99533 1.09432 2.02578 1.09193 2.0563 1.09203C2.21491 1.09198 2.36692 1.15542 2.47842 1.26821L3.61555 2.40555C3.79053 2.57852 3.84222 2.84078 3.74591 3.06722C3.67142 3.2448 3.56514 3.40731 3.43231 3.54671C2.49203 4.48437 3.33357 6.16498 4.58305 7.4196V7.4196Z" fill="#9BABC5"/>
</svg>
