<svg width="10" height="11" viewBox="0 0 10 11" fill="none" xmlns="http://www.w3.org/2000/svg">
<path fill-rule="evenodd" clip-rule="evenodd" d="M7 1.5V1C7 0.724 7.224 0.5 7.5 0.5C7.776 0.5 8 0.724 8 1V1.5H8.5C8.898 1.5 9.2795 1.658 9.5605 1.9395C9.842 2.2205 10 2.602 10 3V9C10 9.398 9.842 9.7795 9.5605 10.0605C9.2795 10.342 8.898 10.5 8.5 10.5C6.7685 10.5 3.2315 10.5 1.5 10.5C1.102 10.5 0.720499 10.342 0.439499 10.0605C0.157999 9.7795 0 9.398 0 9C0 7.463 0 4.537 0 3C0 2.602 0.157999 2.2205 0.439499 1.9395C0.720499 1.658 1.102 1.5 1.5 1.5H2V1C2 0.724 2.224 0.5 2.5 0.5C2.776 0.5 3 0.724 3 1V1.5H7ZM9 4.5H1V9C1 9.1325 1.0525 9.26 1.1465 9.3535C1.24 9.4475 1.3675 9.5 1.5 9.5H8.5C8.6325 9.5 8.76 9.4475 8.8535 9.3535C8.9475 9.26 9 9.1325 9 9V4.5ZM4 8.5H7.5C7.776 8.5 8 8.276 8 8C8 7.724 7.776 7.5 7.5 7.5H4C3.724 7.5 3.5 7.724 3.5 8C3.5 8.276 3.724 8.5 4 8.5ZM2.5 6.5H6C6.276 6.5 6.5 6.276 6.5 6C6.5 5.724 6.276 5.5 6 5.5H2.5C2.224 5.5 2 5.724 2 6C2 6.276 2.224 6.5 2.5 6.5ZM8.5 2.5H1.5C1.3675 2.5 1.24 2.5525 1.1465 2.6465C1.0525 2.74 1 2.8675 1 3V3.5H9V3C9 2.8675 8.9475 2.74 8.8535 2.6465C8.76 2.5525 8.6325 2.5 8.5 2.5Z" fill="#9BABC5"/>
</svg>
