<svg width="13" height="14" viewBox="0 0 13 14" fill="none" xmlns="http://www.w3.org/2000/svg">
<path fill-rule="evenodd" clip-rule="evenodd" d="M6.5 0.5C2.91015 0.5 0 3.41015 0 7C0 10.5899 2.91015 13.5 6.5 13.5C10.0899 13.5 13 10.5899 13 7C13 3.41015 10.0899 0.5 6.5 0.5ZM1.26102 7C1.26102 4.10659 3.60659 1.76102 6.5 1.76102C9.39341 1.76102 11.739 4.10659 11.739 7C11.739 9.89341 9.39341 12.239 6.5 12.239C3.60659 12.239 1.26102 9.89341 1.26102 7Z" fill="white"/>
<path fill-rule="evenodd" clip-rule="evenodd" d="M6.5 3.75C6.83655 3.75 7.10938 4.02283 7.10938 4.35938V6.39062H9.14062C9.47717 6.39062 9.75 6.66345 9.75 7C9.75 7.33655 9.47717 7.60938 9.14062 7.60938H7.10938V9.64062C7.10938 9.97717 6.83655 10.25 6.5 10.25C6.16345 10.25 5.89062 9.97717 5.89062 9.64062V7.60938H3.85938C3.52283 7.60938 3.25 7.33655 3.25 7C3.25 6.66345 3.52283 6.39062 3.85938 6.39062H5.89062V4.35938C5.89062 4.02283 6.16345 3.75 6.5 3.75Z" fill="white"/>
</svg>
