<svg width="9" height="10" viewBox="0 0 9 10" fill="none" xmlns="http://www.w3.org/2000/svg">
<path d="M6.30349 1.52975C6.623 1.52816 6.84253 1.52747 7.00976 1.54778C7.06411 1.55438 7.10953 1.56288 7.1481 1.57316L3.77701 5.32138C3.68411 5.42467 3.68411 5.59214 3.77701 5.69543C3.86991 5.79873 4.02052 5.79873 4.11342 5.69543L7.48451 1.94721C7.49376 1.9901 7.5014 2.0406 7.50734 2.10102C7.5256 2.28696 7.52498 2.53105 7.52356 2.88631L7.52004 3.76166C7.51946 3.90773 7.62548 4.02668 7.75686 4.02733C7.88824 4.02798 7.99522 3.91009 7.9958 3.76402L7.99938 2.8729C8.00073 2.53727 8.00184 2.26296 7.98029 2.04359C7.95789 1.81548 7.90854 1.61353 7.78758 1.43974C7.7614 1.40212 7.73315 1.36641 7.70301 1.33278C7.6721 1.29831 7.6392 1.26603 7.6045 1.23618C7.4482 1.10169 7.26657 1.04683 7.06141 1.02191C6.86412 0.997959 6.61741 0.999188 6.31555 1.00069L5.51409 1.00467C5.38271 1.00532 5.27669 1.12426 5.27727 1.27034C5.27786 1.41641 5.38484 1.5343 5.51621 1.53365L6.30349 1.52975Z" fill="#9BABC5"/>
<path d="M4.72966 2.12571C4.53757 2.12315 4.32599 2.12315 4.09349 2.12315H4.07811C3.4956 2.12314 3.039 2.12314 2.67674 2.16678C2.30706 2.21131 2.00753 2.30382 1.75178 2.51042C1.59695 2.63549 1.4608 2.78688 1.34831 2.95903C1.1625 3.24339 1.0793 3.57643 1.03924 3.98747C0.999995 4.39026 0.999997 4.89794 1 5.54562V5.57753C0.999997 6.2252 0.999995 6.73289 1.03924 7.13568C1.0793 7.54671 1.1625 7.87976 1.34831 8.16411C1.4608 8.33626 1.59695 8.48765 1.75178 8.61273C2.00753 8.81932 2.30706 8.91183 2.67674 8.95637C3.03899 9 3.49559 9 4.07808 9H4.10682C4.68931 9 5.14593 9 5.50818 8.95637C5.87786 8.91183 6.1774 8.81932 6.43314 8.61273C6.58797 8.48765 6.72413 8.33626 6.83662 8.16411C7.02243 7.87976 7.10563 7.54671 7.14568 7.13568C7.18493 6.7329 7.18493 6.22522 7.18492 5.57756V5.56035C7.18492 5.30188 7.18492 5.06665 7.18262 4.85308C7.18105 4.70702 7.07327 4.59003 6.9419 4.59178C6.81054 4.59353 6.70532 4.71336 6.70689 4.85942C6.70916 5.06953 6.70916 5.30177 6.70916 5.56157C6.70916 6.22865 6.70883 6.70772 6.67268 7.0787C6.63702 7.44472 6.56878 7.67403 6.45172 7.85318C6.36857 7.98042 6.26793 8.09232 6.1535 8.18477C5.99237 8.31493 5.78614 8.3908 5.45694 8.43045C5.12328 8.47065 4.69242 8.47101 4.09246 8.47101C3.4925 8.47101 3.06164 8.47065 2.72799 8.43045C2.39879 8.3908 2.19255 8.31493 2.03143 8.18477C1.91699 8.09232 1.81635 7.98042 1.73321 7.85318C1.61614 7.67403 1.54791 7.44472 1.51224 7.0787C1.47609 6.70772 1.47576 6.22865 1.47576 5.56157C1.47576 4.89449 1.47609 4.41543 1.51224 4.04445C1.54791 3.67842 1.61614 3.44912 1.73321 3.26996C1.81635 3.14272 1.91699 3.03083 2.03143 2.93838C2.19255 2.80822 2.39879 2.73235 2.72799 2.69269C3.06164 2.6525 3.4925 2.65214 4.09246 2.65214C4.32612 2.65214 4.535 2.65214 4.72396 2.65466C4.85533 2.65641 4.9631 2.53942 4.96468 2.39335C4.96625 2.24729 4.86103 2.12746 4.72966 2.12571Z" fill="#9BABC5"/>
<path d="M6.30349 1.52975C6.623 1.52816 6.84253 1.52747 7.00976 1.54778C7.06411 1.55438 7.10953 1.56288 7.1481 1.57316L3.77701 5.32138C3.68411 5.42467 3.68411 5.59214 3.77701 5.69543C3.86991 5.79873 4.02052 5.79873 4.11342 5.69543L7.48451 1.94721C7.49376 1.9901 7.5014 2.0406 7.50734 2.10102C7.5256 2.28696 7.52498 2.53105 7.52356 2.88631L7.52004 3.76166C7.51946 3.90773 7.62548 4.02668 7.75686 4.02733C7.88824 4.02798 7.99522 3.91009 7.9958 3.76402L7.99938 2.8729C8.00073 2.53727 8.00184 2.26296 7.98029 2.04359C7.95789 1.81548 7.90854 1.61353 7.78758 1.43974C7.7614 1.40212 7.73315 1.36641 7.70301 1.33278C7.6721 1.29831 7.6392 1.26603 7.6045 1.23618C7.4482 1.10169 7.26657 1.04683 7.06141 1.02191C6.86412 0.997959 6.61741 0.999188 6.31555 1.00069L5.51409 1.00467C5.38271 1.00532 5.27669 1.12426 5.27727 1.27034C5.27786 1.41641 5.38484 1.5343 5.51621 1.53365L6.30349 1.52975Z" stroke="#9BABC5" stroke-width="0.5" stroke-linecap="round"/>
<path d="M4.72966 2.12571C4.53757 2.12315 4.32599 2.12315 4.09349 2.12315H4.07811C3.4956 2.12314 3.039 2.12314 2.67674 2.16678C2.30706 2.21131 2.00753 2.30382 1.75178 2.51042C1.59695 2.63549 1.4608 2.78688 1.34831 2.95903C1.1625 3.24339 1.0793 3.57643 1.03924 3.98747C0.999995 4.39026 0.999997 4.89794 1 5.54562V5.57753C0.999997 6.2252 0.999995 6.73289 1.03924 7.13568C1.0793 7.54671 1.1625 7.87976 1.34831 8.16411C1.4608 8.33626 1.59695 8.48765 1.75178 8.61273C2.00753 8.81932 2.30706 8.91183 2.67674 8.95637C3.03899 9 3.49559 9 4.07808 9H4.10682C4.68931 9 5.14593 9 5.50818 8.95637C5.87786 8.91183 6.1774 8.81932 6.43314 8.61273C6.58797 8.48765 6.72413 8.33626 6.83662 8.16411C7.02243 7.87976 7.10563 7.54671 7.14568 7.13568C7.18493 6.7329 7.18493 6.22522 7.18492 5.57756V5.56035C7.18492 5.30188 7.18492 5.06665 7.18262 4.85308C7.18105 4.70702 7.07327 4.59003 6.9419 4.59178C6.81054 4.59353 6.70532 4.71336 6.70689 4.85942C6.70916 5.06953 6.70916 5.30177 6.70916 5.56157C6.70916 6.22865 6.70883 6.70772 6.67268 7.0787C6.63702 7.44472 6.56878 7.67403 6.45172 7.85318C6.36857 7.98042 6.26793 8.09232 6.1535 8.18477C5.99237 8.31493 5.78614 8.3908 5.45694 8.43045C5.12328 8.47065 4.69242 8.47101 4.09246 8.47101C3.4925 8.47101 3.06164 8.47065 2.72799 8.43045C2.39879 8.3908 2.19255 8.31493 2.03143 8.18477C1.91699 8.09232 1.81635 7.98042 1.73321 7.85318C1.61614 7.67403 1.54791 7.44472 1.51224 7.0787C1.47609 6.70772 1.47576 6.22865 1.47576 5.56157C1.47576 4.89449 1.47609 4.41543 1.51224 4.04445C1.54791 3.67842 1.61614 3.44912 1.73321 3.26996C1.81635 3.14272 1.91699 3.03083 2.03143 2.93838C2.19255 2.80822 2.39879 2.73235 2.72799 2.69269C3.06164 2.6525 3.4925 2.65214 4.09246 2.65214C4.32612 2.65214 4.535 2.65214 4.72396 2.65466C4.85533 2.65641 4.9631 2.53942 4.96468 2.39335C4.96625 2.24729 4.86103 2.12746 4.72966 2.12571Z" stroke="#9BABC5" stroke-width="0.5" stroke-linecap="round"/>
</svg>
