<svg width="14" height="15" viewBox="0 0 14 15" fill="none" xmlns="http://www.w3.org/2000/svg">
<path d="M9.80824 0.658729C9.59066 0.44709 9.2379 0.44709 9.02032 0.658729C8.80274 0.870368 8.80274 1.2135 9.02032 1.42514L9.55493 1.94516L6.13692 1.94515C4.86941 1.94495 4.09594 1.94484 3.4515 2.14851C2.15112 2.5595 1.1316 3.55119 0.709082 4.81608C0.499691 5.44293 0.499813 6.19529 0.500012 7.42821V7.6621C0.499813 8.89502 0.499691 9.64738 0.709082 10.2742C0.804167 10.5589 1.11848 10.7147 1.41112 10.6222C1.70376 10.5297 1.86391 10.2239 1.76883 9.93929C1.62118 9.49729 1.61431 8.93226 1.61431 7.54515C1.61431 6.15805 1.62118 5.59302 1.76883 5.15101C2.08112 4.2161 2.83468 3.48311 3.79583 3.17933C4.25024 3.03572 4.83112 3.02903 6.25715 3.02903H9.36114L8.87189 3.42561C8.63551 3.61722 8.60357 3.95894 8.80056 4.18887C8.99754 4.4188 9.34886 4.44987 9.58524 4.25826L10.6317 3.40997C10.9172 3.17858 11.0737 2.85402 11.0966 2.52342C11.1207 2.17472 10.9963 1.81433 10.7187 1.54439L9.80824 0.658729Z" fill="white"/>
<path d="M13.2909 4.81608C13.1958 4.53143 12.8815 4.37565 12.5889 4.46814C12.2962 4.56063 12.1361 4.86636 12.2312 5.15101C12.3788 5.59302 12.3857 6.15805 12.3857 7.54515C12.3857 8.93226 12.3788 9.49729 12.2312 9.93929C11.9189 10.8742 11.1653 11.6072 10.2042 11.911C9.74976 12.0546 9.16888 12.0613 7.74286 12.0613H6.25715C5.53861 12.0613 5.03471 12.0597 4.65313 12.0395L5.1654 11.5413C5.38297 11.3296 5.38297 10.9865 5.1654 10.7748C4.94782 10.5632 4.59506 10.5632 4.37748 10.7748L3.46697 11.6605C3.26769 11.8543 3.14651 12.0961 3.10375 12.3469C3.03148 12.771 3.18346 13.2258 3.55397 13.5261L4.60048 14.3744C4.83686 14.566 5.18817 14.5349 5.38516 14.305C5.58214 14.0751 5.55021 13.7333 5.31382 13.5417L4.80774 13.1315C5.18607 13.1453 5.62235 13.1452 6.14143 13.1452H7.86307C9.13059 13.1454 9.90406 13.1455 10.5485 12.9418C11.8489 12.5308 12.8684 11.5391 13.2909 10.2742C13.5003 9.64738 13.5002 8.89502 13.5 7.66209V7.42822C13.5002 6.19529 13.5003 5.44293 13.2909 4.81608Z" fill="white"/>
</svg>
