<svg width="19" height="23" viewBox="0 0 19 23" fill="none" xmlns="http://www.w3.org/2000/svg">
<path d="M9.49971 6.66157C6.75378 6.66157 4.37627 8.51762 3.78059 11.1263L1.82983 19.6694C1.81552 19.7321 1.8083 19.7961 1.8083 19.8603C1.8083 20.3462 2.21311 20.7402 2.71245 20.7402H16.287C16.3529 20.7402 16.4187 20.7331 16.4831 20.7192C16.9706 20.6138 17.2779 20.1438 17.1696 19.6694L15.2188 11.1263C14.6231 8.51762 12.2456 6.66157 9.49971 6.66157ZM9.49971 4.90175C13.0932 4.90175 16.2045 7.33067 16.9841 10.7445L18.9348 19.2876C19.2598 20.7108 18.3378 22.1209 16.8754 22.4371C16.6822 22.4789 16.4849 22.5 16.287 22.5H2.71245C1.21441 22.5 0 21.3181 0 19.8603C0 19.6677 0.0216595 19.4756 0.0645915 19.2876L2.01535 10.7445C2.79489 7.33067 5.90623 4.90175 9.49971 4.90175Z" fill="#F4F4F4"/>
<path d="M11.3081 10.1812C11.8074 10.1812 12.2122 10.5752 12.2122 11.0611C12.2122 11.5471 11.8074 11.941 11.3081 11.941H9.0477C8.79802 11.941 8.59562 12.138 8.59562 12.381C8.59562 12.624 8.79802 12.821 9.0477 12.821H9.95185C11.2002 12.821 12.2122 13.8058 12.2122 15.0207C12.2122 16.2356 11.2002 17.2205 9.95185 17.2205H7.69147C7.19213 17.2205 6.78732 16.8266 6.78732 16.3406C6.78732 15.8546 7.19213 15.4607 7.69147 15.4607H9.95185C10.2015 15.4607 10.4039 15.2637 10.4039 15.0207C10.4039 14.7778 10.2015 14.5808 9.95185 14.5808H9.0477C7.79933 14.5808 6.78732 13.5959 6.78732 12.381C6.78732 11.1661 7.79933 10.1812 9.0477 10.1812H11.3081Z" fill="#F4F4F4"/>
<path d="M8.59565 9.30132C8.59565 8.81536 9.00046 8.42141 9.49981 8.42141C9.99916 8.42141 10.404 8.81536 10.404 9.30132V11.0612C10.404 11.5471 9.99916 11.9411 9.49981 11.9411C9.00046 11.9411 8.59565 11.5471 8.59565 11.0612V9.30132Z" fill="#F4F4F4"/>
<path d="M10.404 18.1005C10.404 18.5864 9.99916 18.9804 9.49981 18.9804C9.00046 18.9804 8.59565 18.5864 8.59565 18.1005V16.3406C8.59565 15.8547 9.00046 15.4607 9.49981 15.4607C9.99916 15.4607 10.404 15.8547 10.404 16.3406V18.1005Z" fill="#F4F4F4"/>
<path d="M8.53092 5.45489C8.71638 5.90609 8.49087 6.41818 8.02723 6.59866C7.5636 6.77914 7.03741 6.55968 6.85196 6.10847L5.04365 1.70891C4.7498 0.993975 5.47459 0.282538 6.21171 0.562365C6.88877 0.819389 7.39339 0.942162 7.69144 0.942162C7.76564 0.942162 7.82714 0.92673 7.9614 0.871206C7.99705 0.856464 8.03891 0.838467 8.13712 0.79618C8.60476 0.596734 8.97415 0.502205 9.49974 0.502205C10.0241 0.502205 10.3994 0.596985 10.8685 0.794506C10.9876 0.845238 11.0351 0.865416 11.0772 0.882286C11.1931 0.92874 11.2489 0.942162 11.308 0.942162C11.5887 0.942162 12.0978 0.818285 12.7943 0.559914C13.5305 0.286804 14.2484 0.996987 13.9558 1.70891L12.1475 6.10847C11.9621 6.55968 11.4359 6.77914 10.9723 6.59866C10.5086 6.41818 10.2831 5.90609 10.4686 5.45489L11.6063 2.68685C11.5023 2.69692 11.403 2.70199 11.308 2.70199C10.9781 2.70199 10.7046 2.63615 10.3887 2.50955C10.3263 2.48455 10.258 2.45554 10.1506 2.40969C9.88884 2.29949 9.74055 2.26203 9.49974 2.26203C9.26126 2.26203 9.12122 2.29787 8.86297 2.40801C8.77425 2.44626 8.71806 2.47041 8.66864 2.49085C8.32999 2.6309 8.04669 2.70199 7.69144 2.70199C7.59595 2.70199 7.49669 2.69716 7.3935 2.68757L8.53092 5.45489Z" fill="#F4F4F4"/>
</svg>
