<svg width="7" height="7" viewBox="0 0 7 7" fill="none" xmlns="http://www.w3.org/2000/svg">
<path d="M3.49799 0C1.56605 0 0 1.56695 0 3.5C0 5.43305 1.56605 7 3.49799 7C5.27497 7 6.76651 5.6672 6.97429 3.9158C6.99668 3.72365 6.85991 3.5448 6.66787 3.5217C6.47618 3.4993 6.29708 3.63615 6.2747 3.8283C6.10854 5.2283 4.91957 6.3 3.49799 6.3C1.95258 6.3 0.699598 5.0463 0.699598 3.5C0.699598 1.9537 1.95258 0.7 3.49799 0.7C3.82085 0.7 4.14057 0.758448 4.43825 0.864148C4.62015 0.928548 4.81079 0.827398 4.8755 0.645398C4.93986 0.463048 4.84961 0.261454 4.66772 0.196704C4.29553 0.0647541 3.90061 0 3.49799 0ZM6.64618 0.7C6.55663 0.7 6.46289 0.731502 6.39468 0.798352L3.34478 3.80625C3.25488 3.8948 3.16428 3.87765 3.09362 3.77335L2.74382 3.2592C2.63678 3.10135 2.41221 3.0555 2.25201 3.16085C2.09145 3.2662 2.04633 3.48425 2.15336 3.6421L2.50316 4.15625C2.81833 4.6214 3.43502 4.683 3.83694 4.2875L6.89768 1.2908C7.03411 1.1564 7.03411 0.932752 6.89768 0.798352C6.82947 0.731152 6.73573 0.7 6.64618 0.7Z" fill="white"/>
</svg>
