<svg width="12" height="12" viewBox="0 0 12 12" fill="none" xmlns="http://www.w3.org/2000/svg">
<path fill-rule="evenodd" clip-rule="evenodd" d="M2.0476 2.0476C2.27773 1.81747 2.65085 1.81747 2.88098 2.0476L6 5.16662L9.11903 2.0476C9.34916 1.81747 9.72227 1.81747 9.9524 2.0476C10.1825 2.27773 10.1825 2.65084 9.9524 2.88097L6.83338 6L9.9524 9.11903C10.1825 9.34916 10.1825 9.72227 9.9524 9.9524C9.72227 10.1825 9.34915 10.1825 9.11902 9.9524L6 6.83337L2.88097 9.9524C2.65084 10.1825 2.27773 10.1825 2.0476 9.9524C1.81747 9.72227 1.81747 9.34916 2.0476 9.11903L5.16663 6L2.0476 2.88097C1.81747 2.65084 1.81747 2.27773 2.0476 2.0476Z" fill="#4D5061"/>
</svg>
