<svg width="10" height="16" viewBox="0 0 10 16" fill="none" xmlns="http://www.w3.org/2000/svg">
<path d="M5 0.5C4.18857 0.5 3.50557 1.11885 3.50557 1.91169V2.00953C2.99074 2.1535 2.49862 2.3729 2.06478 2.66588C1.21529 3.23955 0.500383 4.17175 0.500383 5.39072C0.500383 6.71838 1.15625 7.65391 2.03638 8.27839C2.79545 8.81697 3.74549 9.13743 4.44499 9.37337L4.49724 9.39101C5.31488 9.6669 5.8409 9.85153 6.1988 10.0924C6.34433 10.1904 6.41199 10.265 6.44815 10.3252C6.48092 10.3798 6.51075 10.4603 6.51075 10.6093C6.51075 10.8902 6.42155 11.0064 6.31727 11.0857C6.17039 11.1972 5.79532 11.372 5 11.372C4.40111 11.372 4.01459 11.2706 3.76126 11.1488C3.51361 11.0298 3.36097 10.8759 3.25188 10.7156C2.80539 10.0595 1.88721 9.87463 1.19826 10.2846C0.500529 10.6997 0.28522 11.5776 0.737751 12.2425C1.32884 13.111 2.24488 13.7593 3.50557 14.0406V14.0883C3.50557 14.8811 4.18857 15.5 5 15.5C5.81144 15.5 6.49443 14.8811 6.49443 14.0883V14.0417C7.12314 13.901 7.70155 13.6572 8.19051 13.2858C9.08949 12.6028 9.49962 11.6309 9.49962 10.6093C9.49962 9.28825 8.80838 8.38205 7.93333 7.79306C7.21168 7.30732 6.31296 7.00487 5.63941 6.7782L5.50247 6.73208C4.70172 6.46188 4.18007 6.26823 3.83149 6.0209C3.68951 5.92016 3.61352 5.83613 3.56849 5.75707C3.52541 5.68142 3.48925 5.57285 3.48925 5.39072C3.48925 5.3014 3.52954 5.14743 3.80309 4.96269C4.01624 4.81875 4.31301 4.70473 4.64204 4.65505C4.7581 4.63753 4.87817 4.62801 5 4.62801C6.08708 4.62801 6.56899 5.02121 6.74812 5.28441C7.19461 5.94047 8.11279 6.12537 8.80174 5.71543C9.49947 5.30025 9.71478 4.42245 9.26225 3.75752C8.66851 2.8851 7.70665 2.25186 6.49443 1.96931V1.91169C6.49443 1.11886 5.81144 0.5 5 0.5Z" fill="#007FFF"/>
</svg>
