<svg width="24" height="24" viewBox="0 0 24 24" fill="none" xmlns="http://www.w3.org/2000/svg">
<path fill-rule="evenodd" clip-rule="evenodd" d="M23.81 11.905C23.81 18.4799 18.4799 23.81 11.905 23.81C5.33005 23.81 0 18.4799 0 11.905C0 5.33005 5.33005 0 11.905 0C18.4799 0 23.81 5.33005 23.81 11.905Z" fill="url(#paint0_linear_5_950)"/>
<path d="M12.7977 4.76202C12.7977 4.26889 12.3979 3.86914 11.9048 3.86914C11.4117 3.86914 11.0119 4.26889 11.0119 4.76202V5.13909C9.0709 5.48664 7.44043 6.94493 7.44043 8.92877C7.44043 11.2111 9.59854 12.7979 11.9048 12.7979C13.5435 12.7979 14.5834 13.8762 14.5834 14.8813C14.5834 15.8864 13.5435 16.9646 11.9048 16.9646C10.2661 16.9646 9.22618 15.8864 9.22618 14.8813C9.22618 14.3881 8.82643 13.9884 8.3333 13.9884C7.84018 13.9884 7.44043 14.3881 7.44043 14.8813C7.44043 16.8651 9.0709 18.3234 11.0119 18.6709V19.048C11.0119 19.5411 11.4117 19.9409 11.9048 19.9409C12.3979 19.9409 12.7977 19.5411 12.7977 19.048V18.6709C14.7387 18.3234 16.3692 16.8651 16.3692 14.8813C16.3692 12.5989 14.2111 11.0121 11.9048 11.0121C10.2661 11.0121 9.22618 9.93387 9.22618 8.92877C9.22618 7.92366 10.2661 6.84539 11.9048 6.84539C13.5435 6.84539 14.5834 7.92366 14.5834 8.92877C14.5834 9.42189 14.9832 9.82164 15.4763 9.82164C15.9694 9.82164 16.3692 9.42189 16.3692 8.92877C16.3692 6.94493 14.7387 5.48664 12.7977 5.13909V4.76202Z" fill="white"/>
<defs>
<linearGradient id="paint0_linear_5_950" x1="3.5715" y1="2.52981" x2="18.7504" y2="20.9826" gradientUnits="userSpaceOnUse">
<stop stop-color="#00FF47"/>
<stop offset="0.807292" stop-color="#83FFA4"/>
<stop offset="1" stop-color="#ECFFF1"/>
</linearGradient>
</defs>
</svg>
