<svg width="12" height="9" viewBox="0 0 12 9" fill="none" xmlns="http://www.w3.org/2000/svg">
<path d="M11.808 0.591429C11.6996 0.410365 11.5505 0.261345 11.3744 0.158017C11.1983 0.0546898 11.0008 0.000358378 10.8 0H1.2C0.88174 0 0.576515 0.135459 0.351472 0.376577C0.126428 0.617695 0 0.944722 0 1.28571V7.71429C0 8.05528 0.126428 8.3823 0.351472 8.62342C0.576515 8.86454 0.88174 9 1.2 9H10.8C11.1183 9 11.4235 8.86454 11.6485 8.62342C11.8736 8.3823 12 8.05528 12 7.71429V1.28571C11.9994 1.03936 11.9328 0.798369 11.808 0.591429ZM9.864 1.28571L6.132 4.28143C6.09232 4.31375 6.04385 4.33126 5.994 4.33126C5.94415 4.33126 5.89568 4.31375 5.856 4.28143L2.13 1.28571H9.864ZM1.2 7.71429V2.14714L5.142 5.31643C5.38979 5.51468 5.69075 5.62179 6 5.62179C6.30925 5.62179 6.61021 5.51468 6.858 5.31643L10.8 2.14714V7.71429H1.2Z" fill="#9BABC5"/>
</svg>
