<svg width="15" height="15" viewBox="0 0 15 15" fill="none" xmlns="http://www.w3.org/2000/svg">
<path fill-rule="evenodd" clip-rule="evenodd" d="M7.5 0C3.35787 0 0 3.35787 0 7.5C0 11.6421 3.35787 15 7.5 15C11.6421 15 15 11.6421 15 7.5C15 3.35787 11.6421 0 7.5 0ZM1.45503 7.5C1.45503 4.16145 4.16145 1.45503 7.5 1.45503C10.8385 1.45503 13.545 4.16145 13.545 7.5C13.545 10.8385 10.8385 13.545 7.5 13.545C4.16145 13.545 1.45503 10.8385 1.45503 7.5Z" fill="white"/>
<path fill-rule="evenodd" clip-rule="evenodd" d="M7.5 3.75C7.88833 3.75 8.20312 4.0648 8.20312 4.45312V6.79688H10.5469C10.9352 6.79688 11.25 7.11167 11.25 7.5C11.25 7.88833 10.9352 8.20312 10.5469 8.20312H8.20312V10.5469C8.20312 10.9352 7.88833 11.25 7.5 11.25C7.11167 11.25 6.79688 10.9352 6.79688 10.5469V8.20312H4.45312C4.0648 8.20312 3.75 7.88833 3.75 7.5C3.75 7.11167 4.0648 6.79688 4.45312 6.79688H6.79688V4.45312C6.79688 4.0648 7.11167 3.75 7.5 3.75Z" fill="white"/>
</svg>
