<svg width="17" height="17" viewBox="0 0 17 17" fill="none" xmlns="http://www.w3.org/2000/svg">
<path fill-rule="evenodd" clip-rule="evenodd" d="M8.5 0C3.80558 0 0 3.80558 0 8.5C0 13.1944 3.80558 17 8.5 17C13.1944 17 17 13.1944 17 8.5C17 3.80558 13.1944 0 8.5 0ZM1.64903 8.5C1.64903 4.71631 4.71631 1.64903 8.5 1.64903C12.2837 1.64903 15.351 4.71631 15.351 8.5C15.351 12.2837 12.2837 15.351 8.5 15.351C4.71631 15.351 1.64903 12.2837 1.64903 8.5Z" fill="white"/>
<path fill-rule="evenodd" clip-rule="evenodd" d="M8.5 4.25C8.9401 4.25 9.29688 4.60677 9.29688 5.04688V7.70312H11.9531C12.3932 7.70312 12.75 8.0599 12.75 8.5C12.75 8.9401 12.3932 9.29688 11.9531 9.29688H9.29688V11.9531C9.29688 12.3932 8.9401 12.75 8.5 12.75C8.0599 12.75 7.70312 12.3932 7.70312 11.9531V9.29688H5.04688C4.60677 9.29688 4.25 8.9401 4.25 8.5C4.25 8.0599 4.60677 7.70312 5.04688 7.70312H7.70312V5.04688C7.70312 4.60677 8.0599 4.25 8.5 4.25Z" fill="white"/>
</svg>
