<svg width="14" height="14" viewBox="0 0 14 14" fill="none" xmlns="http://www.w3.org/2000/svg">
<path d="M6.99598 0C3.1321 0 0 3.1339 0 7C0 10.8661 3.1321 14 6.99598 14C10.5499 14 13.533 11.3344 13.9486 7.83159C13.9934 7.44729 13.7198 7.08961 13.3357 7.04341C12.9524 6.99861 12.5942 7.27229 12.5494 7.65659C12.2171 10.4566 9.83915 12.6 6.99598 12.6C3.90516 12.6 1.3992 10.0926 1.3992 7C1.3992 3.9074 3.90516 1.4 6.99598 1.4C7.64171 1.4 8.28114 1.5169 8.8765 1.7283C9.24029 1.8571 9.62157 1.6548 9.751 1.2908C9.87972 0.926096 9.69922 0.522908 9.33543 0.393408C8.59106 0.129508 7.80122 0 6.99598 0ZM13.2924 1.4C13.1133 1.4 12.9258 1.463 12.7894 1.5967L6.68955 7.6125C6.50976 7.7896 6.32856 7.7553 6.18724 7.5467L5.48764 6.51841C5.27357 6.20271 4.82443 6.111 4.50401 6.3217C4.1829 6.5324 4.09265 6.9685 4.30673 7.2842L5.00633 8.3125C5.63666 9.2428 6.87005 9.366 7.67389 8.575L13.7954 2.58159C14.0682 2.31279 14.0682 1.8655 13.7954 1.5967C13.6589 1.4623 13.4715 1.4 13.2924 1.4Z" fill="white"/>
</svg>
