<svg width="14" height="16" viewBox="0 0 14 16" fill="none" xmlns="http://www.w3.org/2000/svg">
<path d="M6.9998 4.48114C5.12101 4.48114 3.49429 5.83099 3.08672 7.72822L1.75199 13.9414C1.7422 13.9869 1.73726 14.0335 1.73726 14.0802C1.73726 14.4336 2.01423 14.7201 2.35589 14.7201H11.6437C11.6888 14.7201 11.7338 14.715 11.7779 14.7049C12.1114 14.6282 12.3217 14.2864 12.2476 13.9414L10.9129 7.72822C10.5053 5.83099 8.8786 4.48114 6.9998 4.48114ZM6.9998 3.20127C9.4585 3.20127 11.5873 4.96776 12.1207 7.45057L13.4554 13.6637C13.6778 14.6988 13.0469 15.7243 12.0463 15.9543C11.9141 15.9847 11.7791 16 11.6437 16H2.35589C1.33091 16 0.5 15.1405 0.5 14.0802C0.5 13.9401 0.51482 13.8005 0.544194 13.6637L1.87893 7.45057C2.41229 4.96776 4.5411 3.20127 6.9998 3.20127Z" fill="#F4F4F4"/>
<path d="M8.2371 7.04089C8.57876 7.04089 8.85573 7.3274 8.85573 7.68082C8.85573 8.03425 8.57876 8.32076 8.2371 8.32076H6.69053C6.5197 8.32076 6.38122 8.46401 6.38122 8.64073C6.38122 8.81744 6.5197 8.9607 6.69053 8.9607H7.30916C8.16331 8.9607 8.85573 9.67697 8.85573 10.5605C8.85573 11.4441 8.16331 12.1604 7.30916 12.1604H5.76259C5.42093 12.1604 5.14396 11.8739 5.14396 11.5204C5.14396 11.167 5.42093 10.8805 5.76259 10.8805H7.30916C7.47999 10.8805 7.61847 10.7373 7.61847 10.5605C7.61847 10.3838 7.47999 10.2406 7.30916 10.2406H6.69053C5.83638 10.2406 5.14396 9.5243 5.14396 8.64073C5.14396 7.75716 5.83638 7.04089 6.69053 7.04089H8.2371Z" fill="#F4F4F4"/>
<path d="M6.38124 6.40096C6.38124 6.04753 6.65821 5.76102 6.99987 5.76102C7.34153 5.76102 7.6185 6.04753 7.6185 6.40096V7.68084C7.6185 8.03427 7.34153 8.32078 6.99987 8.32078C6.65821 8.32078 6.38124 8.03427 6.38124 7.68084V6.40096Z" fill="#F4F4F4"/>
<path d="M7.6185 12.8003C7.6185 13.1538 7.34153 13.4403 6.99987 13.4403C6.65821 13.4403 6.38124 13.1538 6.38124 12.8003V11.5205C6.38124 11.167 6.65821 10.8805 6.99987 10.8805C7.34153 10.8805 7.6185 11.167 7.6185 11.5205V12.8003Z" fill="#F4F4F4"/>
<path d="M6.33695 3.60356C6.46384 3.9317 6.30954 4.30413 5.99232 4.43539C5.67509 4.56665 5.31507 4.40704 5.18818 4.07889L3.95092 0.879207C3.74986 0.359255 4.24577 -0.158154 4.75012 0.0453563C5.21337 0.232283 5.55863 0.321572 5.76256 0.321572C5.81333 0.321572 5.85541 0.310349 5.94727 0.269968C5.97166 0.259247 6.00031 0.246158 6.06751 0.215404C6.38746 0.0703518 6.64021 0.00160398 6.99982 0.00160398C7.35862 0.00160398 7.61535 0.0705343 7.93638 0.214186C8.01783 0.251083 8.05035 0.265757 8.07915 0.278026C8.15847 0.311811 8.19661 0.321572 8.23708 0.321572C8.42909 0.321572 8.77746 0.23148 9.254 0.043574C9.75772 -0.155051 10.2489 0.361445 10.0487 0.879207L8.81147 4.07889C8.68458 4.40704 8.32455 4.56665 8.00733 4.43539C7.69011 4.30413 7.53581 3.9317 7.6627 3.60356L8.44114 1.59044C8.37001 1.59776 8.30204 1.60145 8.23708 1.60145C8.01132 1.60145 7.82421 1.55356 7.60806 1.46149C7.56537 1.44331 7.5186 1.42221 7.44515 1.38886C7.26605 1.30872 7.16459 1.28148 6.99982 1.28148C6.83665 1.28148 6.74084 1.30754 6.56414 1.38765C6.50344 1.41546 6.46499 1.43303 6.43117 1.44789C6.19947 1.54975 6.00563 1.60145 5.76256 1.60145C5.69723 1.60145 5.62931 1.59794 5.55871 1.59096L6.33695 3.60356Z" fill="#F4F4F4"/>
</svg>
