<svg width="19" height="21" viewBox="0 0 19 21" fill="none" xmlns="http://www.w3.org/2000/svg">
<path d="M13.2804 1.03216C12.9875 0.739269 12.5126 0.739269 12.2197 1.03216C11.9268 1.32506 11.9268 1.79993 12.2197 2.09282L12.9394 2.81249L8.33819 2.81248C6.63192 2.81221 5.5907 2.81204 4.72319 3.09392C2.97267 3.6627 1.60024 5.03513 1.03146 6.78564C0.749584 7.65316 0.749748 8.69438 0.750016 10.4007V10.7243C0.749748 12.4306 0.749584 13.4718 1.03146 14.3393C1.15946 14.7333 1.58257 14.9489 1.97651 14.8209C2.37045 14.6929 2.58604 14.2698 2.45804 13.8758C2.25929 13.2641 2.25003 12.4821 2.25003 10.5625C2.25003 8.64284 2.25929 7.86088 2.45804 7.24917C2.87844 5.95531 3.89285 4.9409 5.18671 4.5205C5.79842 4.32175 6.58038 4.31249 8.50003 4.31249H12.6785L12.0199 4.86133C11.7017 5.1265 11.6587 5.59942 11.9239 5.91763C12.189 6.23584 12.662 6.27883 12.9802 6.01366L14.3889 4.83968C14.7732 4.51946 14.9839 4.07029 15.0147 3.61276C15.0471 3.13019 14.8796 2.63143 14.5061 2.25786L13.2804 1.03216Z" fill="white"/>
<path d="M17.9686 6.78564C17.8406 6.3917 17.4175 6.17612 17.0236 6.30412C16.6296 6.43211 16.414 6.85523 16.542 7.24917C16.7408 7.86088 16.75 8.64284 16.75 10.5625C16.75 12.4821 16.7408 13.2641 16.542 13.8758C16.1216 15.1697 15.1072 16.1841 13.8134 16.6045C13.2016 16.8032 12.4197 16.8125 10.5 16.8125H8.50003C7.53277 16.8125 6.85444 16.8102 6.34077 16.7824L7.03036 16.0928C7.32326 15.7999 7.32326 15.3251 7.03036 15.0322C6.73747 14.7393 6.2626 14.7393 5.9697 15.0322L4.74401 16.2579C4.47575 16.5261 4.31262 16.8607 4.25507 17.2078C4.15777 17.7946 4.36236 18.424 4.86112 18.8397L6.26989 20.0137C6.5881 20.2788 7.06103 20.2358 7.3262 19.9176C7.59137 19.5994 7.54838 19.1265 7.23017 18.8613L6.5489 18.2936C7.05819 18.3127 7.64549 18.3126 8.34427 18.3125H10.6619C12.3681 18.3128 13.4094 18.3129 14.2769 18.0311C16.0274 17.4623 17.3998 16.0899 17.9686 14.3393C18.2505 13.4718 18.2503 12.4306 18.25 10.7243V10.4007C18.2503 8.69438 18.2505 7.65317 17.9686 6.78564Z" fill="white"/>
<path d="M13.2804 1.03216C12.9875 0.739269 12.5126 0.739269 12.2197 1.03216C11.9268 1.32506 11.9268 1.79993 12.2197 2.09282L12.9394 2.81249L8.33819 2.81248C6.63192 2.81221 5.5907 2.81204 4.72319 3.09392C2.97267 3.6627 1.60024 5.03513 1.03146 6.78564C0.749584 7.65316 0.749748 8.69438 0.750016 10.4007V10.7243C0.749748 12.4306 0.749584 13.4718 1.03146 14.3393C1.15946 14.7333 1.58257 14.9489 1.97651 14.8209C2.37045 14.6929 2.58604 14.2698 2.45804 13.8758C2.25929 13.2641 2.25003 12.4821 2.25003 10.5625C2.25003 8.64284 2.25929 7.86088 2.45804 7.24917C2.87844 5.95531 3.89285 4.9409 5.18671 4.5205C5.79842 4.32175 6.58038 4.31249 8.50003 4.31249H12.6785L12.0199 4.86133C11.7017 5.1265 11.6587 5.59942 11.9239 5.91763C12.189 6.23584 12.662 6.27883 12.9802 6.01366L14.3889 4.83968C14.7732 4.51946 14.9839 4.07029 15.0147 3.61276C15.0471 3.13019 14.8796 2.63143 14.5061 2.25786L13.2804 1.03216Z" stroke="white" stroke-linecap="round"/>
<path d="M17.9686 6.78564C17.8406 6.3917 17.4175 6.17612 17.0236 6.30412C16.6296 6.43211 16.414 6.85523 16.542 7.24917C16.7408 7.86088 16.75 8.64284 16.75 10.5625C16.75 12.4821 16.7408 13.2641 16.542 13.8758C16.1216 15.1697 15.1072 16.1841 13.8134 16.6045C13.2016 16.8032 12.4197 16.8125 10.5 16.8125H8.50003C7.53277 16.8125 6.85444 16.8102 6.34077 16.7824L7.03036 16.0928C7.32326 15.7999 7.32326 15.3251 7.03036 15.0322C6.73747 14.7393 6.2626 14.7393 5.9697 15.0322L4.74401 16.2579C4.47575 16.5261 4.31262 16.8607 4.25507 17.2078C4.15777 17.7946 4.36236 18.424 4.86112 18.8397L6.26989 20.0137C6.5881 20.2788 7.06103 20.2358 7.3262 19.9176C7.59137 19.5994 7.54838 19.1265 7.23017 18.8613L6.5489 18.2936C7.05819 18.3127 7.64549 18.3126 8.34427 18.3125H10.6619C12.3681 18.3128 13.4094 18.3129 14.2769 18.0311C16.0274 17.4623 17.3998 16.0899 17.9686 14.3393C18.2505 13.4718 18.2503 12.4306 18.25 10.7243V10.4007C18.2503 8.69438 18.2505 7.65317 17.9686 6.78564Z" stroke="white" stroke-linecap="round"/>
</svg>
