<svg width="19" height="20" viewBox="0 0 19 20" fill="none" xmlns="http://www.w3.org/2000/svg">
<path d="M13.8799 2.19193C14.6559 2.18836 15.189 2.18681 15.5951 2.2325C15.7271 2.24735 15.8374 2.26648 15.9311 2.2896L7.74416 10.7231C7.51855 10.9555 7.51855 11.3323 7.74416 11.5647C7.96977 11.7971 8.33556 11.7971 8.56117 11.5647L16.7481 3.13122C16.7705 3.22771 16.7891 3.34134 16.8035 3.4773C16.8479 3.89565 16.8464 4.44486 16.8429 5.24419L16.8344 7.21372C16.833 7.54239 17.0905 7.81002 17.4095 7.81148C17.7286 7.81295 17.9884 7.5477 17.9898 7.21903L17.9985 5.21403C18.0018 4.45886 18.0045 3.84166 17.9521 3.34809C17.8977 2.83484 17.7779 2.38044 17.4841 1.98942C17.4205 1.90478 17.3519 1.82441 17.2787 1.74876C17.2037 1.67119 17.1238 1.59858 17.0395 1.5314C16.6599 1.2288 16.2188 1.10536 15.7206 1.04931C15.2414 0.995408 14.6423 0.998172 13.9092 1.00156L11.9628 1.0105C11.6437 1.01197 11.3862 1.27959 11.3877 1.60826C11.3891 1.93693 11.6489 2.20218 11.9679 2.20071L13.8799 2.19193Z" fill="#A5AAAF"/>
<path d="M10.0578 3.53284C9.59124 3.52708 9.0774 3.52708 8.51276 3.52708H8.47541C7.06075 3.52707 5.95185 3.52707 5.07209 3.62526C4.17429 3.72546 3.44685 3.9336 2.82575 4.39845C2.44974 4.67986 2.11908 5.02049 1.84589 5.40782C1.39463 6.04763 1.19258 6.79698 1.09531 7.72181C0.999989 8.62807 0.999994 9.77038 1 11.2276V11.2994C0.999994 12.7567 0.999989 13.899 1.09531 14.8053C1.19258 15.7301 1.39463 16.4795 1.84589 17.1193C2.11907 17.5066 2.44974 17.8472 2.82575 18.1286C3.44685 18.5935 4.17429 18.8016 5.07209 18.9018C5.95184 19 7.06072 19 8.47533 19H8.54514C9.95975 19 11.0687 19 11.9484 18.9018C12.8462 18.8016 13.5737 18.5935 14.1948 18.1286C14.5708 17.8472 14.9015 17.5066 15.1746 17.1193C15.6259 16.4795 15.828 15.7301 15.9252 14.8053C16.0205 13.899 16.0205 12.7567 16.0205 11.2995V11.2608C16.0205 10.6792 16.0205 10.15 16.0149 9.66944C16.0111 9.34079 15.7494 9.07756 15.4303 9.0815C15.1113 9.08544 14.8558 9.35506 14.8596 9.68371C14.8651 10.1564 14.8651 10.679 14.8651 11.2635C14.8651 12.7645 14.8643 13.8424 14.7765 14.6771C14.6899 15.5006 14.5242 16.0166 14.2399 16.4197C14.038 16.706 13.7936 16.9577 13.5156 17.1657C13.1243 17.4586 12.6235 17.6293 11.824 17.7185C11.0137 17.809 9.96731 17.8098 8.51026 17.8098C7.05322 17.8098 6.00684 17.809 5.19654 17.7185C4.39705 17.6293 3.8962 17.4586 3.50489 17.1657C3.22698 16.9577 2.98257 16.706 2.78065 16.4197C2.49635 16.0166 2.33063 15.5006 2.24401 14.6771C2.15622 13.8424 2.15543 12.7645 2.15543 11.2635C2.15543 9.76261 2.15622 8.68471 2.24401 7.85001C2.33063 7.02645 2.49635 6.51051 2.78065 6.10742C2.98257 5.82113 3.22697 5.56936 3.50489 5.36136C3.8962 5.06849 4.39705 4.89778 5.19654 4.80856C6.00684 4.71812 7.05322 4.71731 8.51026 4.71731C9.07772 4.71731 9.585 4.71731 10.0439 4.72298C10.3629 4.72692 10.6247 4.46369 10.6285 4.13504C10.6323 3.8064 10.3768 3.53678 10.0578 3.53284Z" fill="#A5AAAF"/>
<path d="M13.8799 2.19193C14.6559 2.18836 15.189 2.18681 15.5951 2.2325C15.7271 2.24735 15.8374 2.26648 15.9311 2.2896L7.74416 10.7231C7.51855 10.9555 7.51855 11.3323 7.74416 11.5647C7.96977 11.7971 8.33556 11.7971 8.56117 11.5647L16.7481 3.13122C16.7705 3.22771 16.7891 3.34134 16.8035 3.4773C16.8479 3.89565 16.8464 4.44486 16.8429 5.24419L16.8344 7.21372C16.833 7.54239 17.0905 7.81002 17.4095 7.81148C17.7286 7.81295 17.9884 7.5477 17.9898 7.21903L17.9985 5.21403C18.0018 4.45886 18.0045 3.84166 17.9521 3.34809C17.8977 2.83484 17.7779 2.38044 17.4841 1.98942C17.4205 1.90478 17.3519 1.82441 17.2787 1.74876C17.2037 1.67119 17.1238 1.59858 17.0395 1.5314C16.6599 1.2288 16.2188 1.10536 15.7206 1.04931C15.2414 0.995408 14.6423 0.998172 13.9092 1.00156L11.9628 1.0105C11.6437 1.01197 11.3862 1.27959 11.3877 1.60826C11.3891 1.93693 11.6489 2.20218 11.9679 2.20071L13.8799 2.19193Z" stroke="#A5AAAF" stroke-linecap="round"/>
<path d="M10.0578 3.53284C9.59124 3.52708 9.0774 3.52708 8.51276 3.52708H8.47541C7.06075 3.52707 5.95185 3.52707 5.07209 3.62526C4.17429 3.72546 3.44685 3.9336 2.82575 4.39845C2.44974 4.67986 2.11908 5.02049 1.84589 5.40782C1.39463 6.04763 1.19258 6.79698 1.09531 7.72181C0.999989 8.62807 0.999994 9.77038 1 11.2276V11.2994C0.999994 12.7567 0.999989 13.899 1.09531 14.8053C1.19258 15.7301 1.39463 16.4795 1.84589 17.1193C2.11907 17.5066 2.44974 17.8472 2.82575 18.1286C3.44685 18.5935 4.17429 18.8016 5.07209 18.9018C5.95184 19 7.06072 19 8.47533 19H8.54514C9.95975 19 11.0687 19 11.9484 18.9018C12.8462 18.8016 13.5737 18.5935 14.1948 18.1286C14.5708 17.8472 14.9015 17.5066 15.1746 17.1193C15.6259 16.4795 15.828 15.7301 15.9252 14.8053C16.0205 13.899 16.0205 12.7567 16.0205 11.2995V11.2608C16.0205 10.6792 16.0205 10.15 16.0149 9.66944C16.0111 9.34079 15.7494 9.07756 15.4303 9.0815C15.1113 9.08544 14.8558 9.35506 14.8596 9.68371C14.8651 10.1564 14.8651 10.679 14.8651 11.2635C14.8651 12.7645 14.8643 13.8424 14.7765 14.6771C14.6899 15.5006 14.5242 16.0166 14.2399 16.4197C14.038 16.706 13.7936 16.9577 13.5156 17.1657C13.1243 17.4586 12.6235 17.6293 11.824 17.7185C11.0137 17.809 9.96731 17.8098 8.51026 17.8098C7.05322 17.8098 6.00684 17.809 5.19654 17.7185C4.39705 17.6293 3.8962 17.4586 3.50489 17.1657C3.22698 16.9577 2.98257 16.706 2.78065 16.4197C2.49635 16.0166 2.33063 15.5006 2.24401 14.6771C2.15622 13.8424 2.15543 12.7645 2.15543 11.2635C2.15543 9.76261 2.15622 8.68471 2.24401 7.85001C2.33063 7.02645 2.49635 6.51051 2.78065 6.10742C2.98257 5.82113 3.22697 5.56936 3.50489 5.36136C3.8962 5.06849 4.39705 4.89778 5.19654 4.80856C6.00684 4.71812 7.05322 4.71731 8.51026 4.71731C9.07772 4.71731 9.585 4.71731 10.0439 4.72298C10.3629 4.72692 10.6247 4.46369 10.6285 4.13504C10.6323 3.8064 10.3768 3.53678 10.0578 3.53284Z" stroke="#A5AAAF" stroke-linecap="round"/>
</svg>
