<svg width="13" height="16" viewBox="0 0 13 16" fill="none" xmlns="http://www.w3.org/2000/svg">
<path d="M6.4998 4.70107C4.62101 4.70107 2.99429 5.96656 2.58672 7.7452L1.25199 13.57C1.2422 13.6128 1.23726 13.6564 1.23726 13.7002C1.23726 14.0315 1.51423 14.3001 1.85589 14.3001H11.1437C11.1888 14.3001 11.2338 14.2953 11.2779 14.2858C11.6114 14.214 11.8217 13.8935 11.7476 13.57L10.4129 7.7452C10.0053 5.96656 8.3786 4.70107 6.4998 4.70107ZM6.4998 3.50119C8.9585 3.50119 11.0873 5.15728 11.6207 7.48491L12.9554 13.3097C13.1778 14.2801 12.5469 15.2415 11.5463 15.4571C11.4141 15.4856 11.2791 15.5 11.1437 15.5H1.85589C0.83091 15.5 0 14.6942 0 13.7002C0 13.5689 0.0148196 13.4379 0.0441942 13.3097L1.37893 7.48491C1.91229 5.15728 4.0411 3.50119 6.4998 3.50119Z" fill="#F4F4F4"/>
<path d="M7.7371 7.10083C8.07876 7.10083 8.35573 7.36943 8.35573 7.70077C8.35573 8.03211 8.07876 8.30071 7.7371 8.30071H6.19053C6.0197 8.30071 5.88122 8.43501 5.88122 8.60068C5.88122 8.76635 6.0197 8.90065 6.19053 8.90065H6.80916C7.66331 8.90065 8.35573 9.57216 8.35573 10.4005C8.35573 11.2288 7.66331 11.9004 6.80916 11.9004H5.26259C4.92093 11.9004 4.64396 11.6318 4.64396 11.3004C4.64396 10.9691 4.92093 10.7005 5.26259 10.7005H6.80916C6.97999 10.7005 7.11847 10.5662 7.11847 10.4005C7.11847 10.2348 6.97999 10.1005 6.80916 10.1005H6.19053C5.33638 10.1005 4.64396 9.42903 4.64396 8.60068C4.64396 7.77234 5.33638 7.10083 6.19053 7.10083H7.7371Z" fill="#F4F4F4"/>
<path d="M5.88124 6.5009C5.88124 6.16956 6.15821 5.90096 6.49987 5.90096C6.84153 5.90096 7.1185 6.16956 7.1185 6.5009V7.70079C7.1185 8.03213 6.84153 8.30073 6.49987 8.30073C6.15821 8.30073 5.88124 8.03213 5.88124 7.70079V6.5009Z" fill="#F4F4F4"/>
<path d="M7.1185 12.5003C7.1185 12.8317 6.84153 13.1003 6.49987 13.1003C6.15821 13.1003 5.88124 12.8317 5.88124 12.5003V11.3004C5.88124 10.9691 6.15821 10.7005 6.49987 10.7005C6.84153 10.7005 7.1185 10.9691 7.1185 11.3004V12.5003Z" fill="#F4F4F4"/>
<path d="M5.83695 3.87833C5.96384 4.18597 5.80954 4.53512 5.49232 4.65818C5.17509 4.78123 4.81507 4.6316 4.68818 4.32396L3.45092 1.32426C3.24986 0.836801 3.74577 0.351731 4.25012 0.542522C4.71337 0.717766 5.05863 0.801474 5.26256 0.801474C5.31333 0.801474 5.35541 0.790953 5.44727 0.753095C5.47166 0.743044 5.50031 0.730773 5.56751 0.701941C5.88746 0.565955 6.14021 0.501504 6.49982 0.501504C6.85862 0.501504 7.11535 0.566126 7.43638 0.7008C7.51783 0.73539 7.55035 0.749147 7.57915 0.760649C7.65847 0.792323 7.69661 0.801474 7.73708 0.801474C7.92909 0.801474 8.27746 0.717012 8.754 0.540851C9.25772 0.354639 9.74894 0.838855 9.54873 1.32426L8.31147 4.32396C8.18458 4.6316 7.82455 4.78123 7.50733 4.65818C7.19011 4.53512 7.03581 4.18597 7.1627 3.87833L7.94114 1.99103C7.87001 1.9979 7.80204 2.00135 7.73708 2.00135C7.51132 2.00135 7.32421 1.95647 7.10806 1.87015C7.06537 1.85311 7.0186 1.83332 6.94515 1.80206C6.76605 1.72692 6.66459 1.70138 6.49982 1.70138C6.33665 1.70138 6.24084 1.72582 6.06414 1.80092C6.00344 1.82699 5.96499 1.84346 5.93117 1.8574C5.69947 1.95289 5.50563 2.00135 5.26256 2.00135C5.19723 2.00135 5.12931 1.99807 5.05871 1.99152L5.83695 3.87833Z" fill="#F4F4F4"/>
</svg>
