<svg width="12" height="16" viewBox="0 0 12 16" fill="none" xmlns="http://www.w3.org/2000/svg">
<path d="M5.65644 0.598764L0.847669 3.59673C0.386027 3.88446 0.386027 4.62061 0.847669 4.90834C1.44877 5.28309 5.05535 7.53157 5.65644 7.90631C5.86734 8.038 6.13182 8.038 6.34341 7.90631L11.1522 4.90834C11.6138 4.62061 11.6138 3.88446 11.1522 3.59673L6.34341 0.598764C6.13251 0.467079 5.86803 0.467079 5.65644 0.598764ZM1.01941 7.27389C0.84973 7.32441 0.684171 7.44553 0.590056 7.62525C0.401827 7.98464 0.518611 8.45044 0.847669 8.65581L5.65644 11.6538C5.86734 11.7855 6.13182 11.7855 6.34341 11.6538L11.1522 8.65581C11.4819 8.45044 11.598 7.98464 11.4098 7.62525C11.2216 7.26587 10.795 7.13883 10.4652 7.34419L5.99993 10.1314L1.53464 7.34419C1.36976 7.24151 1.18909 7.22345 1.01941 7.27389ZM1.01941 11.0214C0.84973 11.0719 0.684171 11.193 0.590056 11.3727C0.401827 11.7321 0.518611 12.1979 0.847669 12.4033L5.65644 15.4012C5.86734 15.5329 6.13182 15.5329 6.34341 15.4012L11.1522 12.4033C11.4819 12.1979 11.598 11.7321 11.4098 11.3727C11.2216 11.0133 10.795 10.8863 10.4652 11.0917L5.99993 13.8789L1.53464 11.0917C1.36976 10.989 1.18909 10.9709 1.01941 11.0214Z" fill="#FF9548"/>
</svg>
