<svg width="22" height="17" viewBox="0 0 22 17" fill="none" xmlns="http://www.w3.org/2000/svg">
<path fill-rule="evenodd" clip-rule="evenodd" d="M3 0H19C20.6569 0 22 1.34315 22 3V3.42743C22.0001 3.43617 22.0001 3.44489 22 3.45362V14C22 15.6569 20.6569 17 19 17H3C1.34315 17 0 15.6569 0 14V3.45358C-0.000113256 3.44488 -0.000113393 3.43618 0 3.42747V3C0 1.34315 1.34315 0 3 0ZM2 5.36205V14C2 14.5523 2.44772 15 3 15H19C19.5523 15 20 14.5523 20 14V5.36205L12.7204 10.4578C11.6874 11.1809 10.3126 11.1809 9.27961 10.4578L2 5.36205ZM19.9971 2.9228L11.5735 8.81932C11.2291 9.06034 10.7709 9.06034 10.4265 8.81932L2.00294 2.9228C2.04235 2.40659 2.47369 2 3 2H19C19.5263 2 19.9577 2.40659 19.9971 2.9228Z" fill="#B5B5BE"/>
</svg>
