<svg width="31" height="33" viewBox="0 0 31 33" fill="none" xmlns="http://www.w3.org/2000/svg">
<path d="M18.6 33C18.1889 33 17.7947 32.8262 17.504 32.5167C17.2133 32.2073 17.05 31.7876 17.05 31.35V19.8C17.05 19.3624 17.2133 18.9427 17.504 18.6333C17.7947 18.3238 18.1889 18.15 18.6 18.15H29.45C29.8611 18.15 30.2553 18.3238 30.546 18.6333C30.8367 18.9427 31 19.3624 31 19.8V31.35C31 31.7876 30.8367 32.2073 30.546 32.5167C30.2553 32.8262 29.8611 33 29.45 33H18.6ZM20.15 29.7H27.9V21.45H20.15V29.7ZM1.55 33C1.13891 33 0.744665 32.8262 0.453983 32.5167C0.163302 32.2073 0 31.7876 0 31.35V19.8C0 19.3624 0.163302 18.9427 0.453983 18.6333C0.744665 18.3238 1.13891 18.15 1.55 18.15H12.4C12.8111 18.15 13.2053 18.3238 13.496 18.6333C13.7867 18.9427 13.95 19.3624 13.95 19.8V31.35C13.95 31.7876 13.7867 32.2073 13.496 32.5167C13.2053 32.8262 12.8111 33 12.4 33H1.55ZM3.1 29.7H10.85V21.45H3.1V29.7ZM18.6 14.85C18.1889 14.85 17.7947 14.6762 17.504 14.3667C17.2133 14.0573 17.05 13.6376 17.05 13.2V1.65C17.05 1.21239 17.2133 0.792708 17.504 0.483273C17.7947 0.173838 18.1889 0 18.6 0H29.45C29.8611 0 30.2553 0.173838 30.546 0.483273C30.8367 0.792708 31 1.21239 31 1.65V13.2C31 13.6376 30.8367 14.0573 30.546 14.3667C30.2553 14.6762 29.8611 14.85 29.45 14.85H18.6ZM20.15 11.55H27.9V3.3H20.15V11.55ZM1.55 14.85C1.13891 14.85 0.744665 14.6762 0.453983 14.3667C0.163302 14.0573 0 13.6376 0 13.2V1.65C0 1.21239 0.163302 0.792708 0.453983 0.483273C0.744665 0.173838 1.13891 0 1.55 0H12.4C12.8111 0 13.2053 0.173838 13.496 0.483273C13.7867 0.792708 13.95 1.21239 13.95 1.65V13.2C13.95 13.6376 13.7867 14.0573 13.496 14.3667C13.2053 14.6762 12.8111 14.85 12.4 14.85H1.55ZM3.1 11.55H10.85V3.3H3.1V11.55Z" fill="#809FB8"/>
</svg>
