<svg width="53" height="44" viewBox="0 0 53 44" fill="none" xmlns="http://www.w3.org/2000/svg">
<path d="M26.5002 22.1231C30.5068 22.1231 33.7549 19.4266 33.7549 16.1003C33.7549 12.774 30.5068 10.0775 26.5002 10.0775C22.4935 10.0775 19.2454 12.774 19.2454 16.1003C19.2454 19.4266 22.4935 22.1231 26.5002 22.1231Z" fill="white" stroke="#007FFF" stroke-width="1.5" stroke-linecap="round" stroke-linejoin="round"/>
<path d="M40.5234 37.8226C36.599 40.2238 31.7491 41.6428 26.5 41.6428C21.2509 41.6428 16.401 40.2238 12.4766 37.8226C13.2582 35.3792 14.9486 33.1953 17.3177 31.5878C19.9091 29.8294 23.1531 28.8688 26.5 28.8688C29.8469 28.8688 33.0909 29.8294 35.6823 31.5878C38.0513 33.1954 39.7418 35.3792 40.5234 37.8226Z" fill="white" stroke="#007FFF" stroke-width="1.5" stroke-linecap="round" stroke-linejoin="round"/>
</svg>
