<svg width="35" height="33" viewBox="0 0 35 33" fill="none" xmlns="http://www.w3.org/2000/svg">
<path d="M22.7392 32.9887H22.6169H12.2519C10.1692 33.0217 8.08528 32.9824 6.00852 32.871C5.23985 32.8853 4.47493 32.7938 3.76047 32.6023C3.04602 32.4107 2.39702 32.1229 1.85312 31.7567C1.30922 31.3905 0.881829 30.9535 0.597053 30.4722C0.312277 29.991 0.176093 29.4757 0.196815 28.9578C0.0284903 27.5567 -0.0316025 26.1507 0.0167819 24.7454V8.25876C-0.0322231 6.85551 0.0261142 5.45148 0.191567 4.05228C0.169888 3.53441 0.305218 3.01899 0.589278 2.53756C0.873339 2.05613 1.30016 1.61884 1.84365 1.25234C2.38714 0.885842 3.03587 0.597891 3.75018 0.406073C4.46448 0.214255 5.22936 0.122615 5.99803 0.136753C8.07814 0.0233691 10.1656 -0.0171492 12.2519 0.0154264H22.4596C22.5428 0.00604115 22.6269 0.000922866 22.7113 0.000116805C22.8345 -0.00107418 22.9576 0.0068466 23.0783 0.0236922C24.4262 -0.0539269 25.7818 0.0903451 27.0285 0.444096C28.5123 1.05621 29.8421 1.82338 30.9682 2.71689C32.2963 3.47736 33.4357 4.37582 34.3434 5.37832C34.8664 6.21617 35.08 7.12696 34.9656 8.03263C35.0076 8.17312 35.0112 8.31758 34.9761 8.45893V24.7454C35.0254 26.1494 34.9671 27.5542 34.8013 28.9542C34.8221 29.4721 34.6859 29.9875 34.4011 30.4687C34.1163 30.9499 33.6889 31.387 33.145 31.7532C32.6011 32.1194 31.9521 32.4071 31.2377 32.5987C30.5232 32.7902 29.7583 32.8817 28.9896 32.8674C26.9985 32.9765 25.0003 33.0159 23.0032 32.9852L22.7392 32.9887ZM6.39305 2.47309C6.02018 2.42823 5.63675 2.44484 5.27544 2.52139C4.91412 2.59794 4.58564 2.73219 4.31799 2.91275C4.05033 3.09331 3.85145 3.31481 3.73829 3.55834C3.62513 3.80188 3.60105 4.06024 3.6681 4.31139C3.52303 5.19696 3.51254 6.49233 3.51254 8.25876V24.7454C3.51254 26.5118 3.52303 27.8131 3.66985 28.6928C3.60318 28.944 3.6277 29.2023 3.74131 29.4457C3.85493 29.6891 4.05427 29.9104 4.32233 30.0906C4.59038 30.2709 4.91918 30.4048 5.28067 30.4808C5.64216 30.5569 6.02562 30.5729 6.39829 30.5275C7.70221 30.6264 9.64061 30.6335 12.2537 30.6335H22.741H22.8633C25.4047 30.6335 27.3152 30.6252 28.5946 30.5275C28.9672 30.5726 29.3505 30.5564 29.7118 30.4803C30.0731 30.4041 30.4017 30.2702 30.6697 30.09C30.9376 29.9098 31.137 29.6887 31.2507 29.4454C31.3645 29.2021 31.3893 28.9439 31.3231 28.6928C31.4716 27.8143 31.4804 26.5083 31.4804 24.7454V9.43637H22.7392C22.2757 9.43637 21.8311 9.31229 21.5033 9.09144C21.1755 8.87059 20.9913 8.57108 20.9913 8.25876V2.37066H12.2519C9.63012 2.37066 7.69696 2.37772 6.39305 2.47546V2.47309ZM24.4871 7.08114H31.4367C31.4273 6.85631 31.3518 6.635 31.2147 6.42994C30.4279 5.67813 29.5147 4.99011 28.4932 4.37967C27.5892 3.69264 26.5711 3.07786 25.4589 2.54733C25.1527 2.45475 24.8226 2.40348 24.4871 2.39654V7.08114ZM26.235 27.1007H8.70724C8.47771 27.0985 8.25105 27.0659 8.04022 27.0047C7.82938 26.9435 7.6385 26.855 7.47847 26.7441C7.31844 26.6332 7.19239 26.5022 7.10752 26.3585C7.02264 26.2148 6.98062 26.0612 6.98383 25.9066C6.98704 25.7519 7.03544 25.5992 7.12625 25.4571C7.21705 25.3151 7.3485 25.1865 7.51307 25.0787C7.67765 24.9709 7.87214 24.8859 8.08543 24.8287C8.29872 24.7715 8.52665 24.7432 8.75618 24.7454H26.2857C26.7492 24.7478 27.1924 24.8741 27.5178 25.0966C27.8431 25.3191 28.0239 25.6196 28.0204 25.9319C28.017 26.2442 27.8295 26.5428 27.4992 26.762C27.169 26.9812 26.723 27.103 26.2595 27.1007H26.235ZM26.235 22.3902H8.70724C8.47771 22.388 8.25105 22.3554 8.04022 22.2942C7.82938 22.233 7.6385 22.1445 7.47847 22.0336C7.31844 21.9227 7.19239 21.7917 7.10752 21.648C7.02264 21.5043 6.98062 21.3507 6.98383 21.1961C6.98704 21.0415 7.03544 20.8887 7.12625 20.7467C7.21705 20.6046 7.3485 20.4761 7.51307 20.3682C7.67765 20.2604 7.87214 20.1754 8.08543 20.1182C8.29872 20.0611 8.52665 20.0328 8.75618 20.0349H26.2857C26.7492 20.0371 27.1925 20.1633 27.518 20.3857C27.8435 20.6081 28.0246 20.9085 28.0213 21.2208C28.0181 21.5331 27.8308 21.8318 27.5007 22.0511C27.1706 22.2704 26.7248 22.3924 26.2612 22.3902H26.235ZM26.235 17.6797H8.70724C8.47771 17.6775 8.25105 17.6449 8.04022 17.5837C7.82938 17.5226 7.6385 17.434 7.47847 17.3231C7.31844 17.2122 7.19239 17.0812 7.10752 16.9375C7.02264 16.7938 6.98062 16.6403 6.98383 16.4856C6.98704 16.331 7.03544 16.1782 7.12625 16.0362C7.21705 15.8941 7.3485 15.7656 7.51307 15.6578C7.67765 15.5499 7.87214 15.465 8.08543 15.4078C8.29872 15.3506 8.52665 15.3223 8.75618 15.3245H26.2857C26.7492 15.3268 27.1924 15.4532 27.5178 15.6757C27.8431 15.8982 28.0239 16.1986 28.0204 16.5109C28.017 16.8232 27.8295 17.1218 27.4992 17.341C27.169 17.5602 26.723 17.682 26.2595 17.6797H26.235Z" fill="#809FB8"/>
</svg>
