<svg width="26" height="25" viewBox="0 0 26 25" fill="none" xmlns="http://www.w3.org/2000/svg">
<path d="M25.3531 19.74C23.8769 17.8785 21.3995 14.2195 21.3995 10.64C21.3995 7.09073 19.1192 3.89758 15.7995 2.72382C15.7592 1.21406 14.5183 0 13.0006 0C11.4819 0 10.2421 1.21406 10.2017 2.72382C6.88095 3.89758 4.60064 7.09073 4.60064 10.64C4.60064 14.2207 2.12434 17.8785 0.647062 19.74C0.154273 20.3616 0.00191325 21.1825 0.240515 21.9363C0.473484 22.6721 1.05361 23.2422 1.79282 23.4595C3.08755 23.8415 5.20991 24.2715 8.44676 24.491C9.84785 24.5851 11.3543 24.64 13.0007 24.64C14.646 24.64 16.1524 24.5851 17.5535 24.491C20.7914 24.2715 22.9127 23.8415 24.2085 23.4595C24.9477 23.2422 25.5268 22.6722 25.7597 21.9363C25.9983 21.1825 25.8448 20.3616 25.3531 19.74Z" fill="#3E4954"/>
</svg>
