<svg width="28" height="27" viewBox="0 0 28 27" fill="none" xmlns="http://www.w3.org/2000/svg">
<g clip-path="url(#clip0_119_1166)">
<path d="M21 2.66667C23.5737 2.66667 25.6667 4.61017 25.6667 7V20C25.6667 22.3898 23.5737 24.3333 21 24.3333H7C4.42633 24.3333 2.33333 22.3898 2.33333 20V7C2.33333 4.61017 4.42633 2.66667 7 2.66667H21ZM21 0.5H7C3.13367 0.5 0 3.40983 0 7V20C0 23.5902 3.13367 26.5 7 26.5H21C24.8663 26.5 28 23.5902 28 20V7C28 3.40983 24.8663 0.5 21 0.5Z" fill="white"/>
<path d="M14.0002 20C13.3562 20 12.8335 19.5158 12.8335 18.9167V8.08333C12.8335 7.48533 13.3562 7 14.0002 7C14.6442 7 15.1668 7.48533 15.1668 8.08333V18.9167C15.1668 19.5158 14.6442 20 14.0002 20Z" fill="white"/>
<path d="M7 13.5C7 12.902 7.5215 12.4167 8.16667 12.4167H19.8333C20.4773 12.4167 21 12.902 21 13.5C21 14.098 20.4773 14.5833 19.8333 14.5833H8.16667C7.5215 14.5833 7 14.098 7 13.5Z" fill="white"/>
</g>
<defs>
<clipPath id="clip0_119_1166">
<rect width="28" height="26" fill="white" transform="translate(0 0.5)"/>
</clipPath>
</defs>
</svg>
